<?xml version="1.0" encoding="UTF-8" standalone="no"?>
<svg
   width="114"
   height="238"
   viewBox="0 0 114 238"
   fill="none"
   version="1.1"
   id="svg46"
   sodipodi:docname="muscle_groups_back.svg"
   inkscape:version="1.3.2 (091e20e, 2023-11-25)"
   xmlns:inkscape="http://www.inkscape.org/namespaces/inkscape"
   xmlns:sodipodi="http://sodipodi.sourceforge.net/DTD/sodipodi-0.dtd"
   xmlns="http://www.w3.org/2000/svg"
   xmlns:svg="http://www.w3.org/2000/svg">
  <path
     d="M54.1204 0.102506C53.3563 0.230981 52.1096 1.1303 50.8227 2.5007C48.6913 4.68477 48.6913 4.7276 48.6913 7.38274C48.6913 9.60964 48.5707 10.1664 47.887 10.5946C46.8414 11.3226 46.8817 12.0507 48.0881 14.6202C48.6109 15.7764 49.1739 17.832 49.3348 19.2881C49.5761 21.9004 50.1793 24.2129 50.6619 24.2129C50.7825 24.2129 51.426 23.1851 52.0292 21.9432C52.9943 20.0589 53.115 19.545 52.753 18.5172C52.5118 17.832 52.3107 17.1468 52.3107 16.9755C52.3107 16.8042 53.9595 16.7186 55.93 16.8042C58.0212 16.8899 59.9113 16.7614 60.3537 16.5044C61.3188 15.9477 61.3993 16.5044 60.7156 18.56C60.3135 19.7591 60.4341 20.1874 61.4797 22.1145L62.6459 24.2986L63.3296 23.3136C63.7317 22.6712 63.973 21.4293 63.973 19.8876C63.973 18.0461 64.2545 16.8899 65.1795 14.9628C66.587 11.965 66.6674 11.3226 65.5816 10.5946C64.898 10.1664 64.7773 9.60964 64.7773 7.38274C64.7773 4.7276 64.7773 4.68477 62.6862 2.5007C60.6352 0.359456 60.4743 0.273806 57.9408 0.0596812C56.493 -0.0259686 54.804 -0.0259686 54.1204 0.102506Z"
     color="3a3a3c"
     id="path1"
     name="face" />
  <path
     d="M54.6438 20.1012C54.7243 21.3859 54.6036 23.0989 54.3623 23.9126C53.9602 25.1117 54.0004 25.6256 54.4026 26.3108C55.1666 27.5956 55.3275 27.4671 55.8101 25.1545C56.4535 21.8998 55.8503 17.7887 54.7243 17.7887C54.6036 17.7887 54.5232 18.8165 54.6438 20.1012Z"
     color="3a3a3c"
     id="path2"
     name="neck_right" />
  <path
     d="M58.0622 18.3027C57.4188 19.1592 57.1775 22.9706 57.6198 25.1547C58.0622 27.4244 58.3035 27.6385 59.0676 26.3538C59.4697 25.6686 59.4697 25.1118 59.1078 23.8271C58.8665 22.9278 58.7057 21.2148 58.7861 20.0157C58.9469 17.746 58.7459 17.3605 58.0622 18.3027Z"
     color="3a3a3c"
     id="path3"
     name="neck_left" />
  <path
     d="M47.4439 31.536C44.468 33.8913 42.0149 35.9898 41.9345 36.1611C41.8943 36.3324 43.2214 36.6321 44.9506 36.8034C46.6396 36.9319 49.3743 37.4458 51.0231 37.9597C52.6719 38.4308 54.0794 38.7734 54.1598 38.6449C54.2403 38.5592 54.4414 36.4608 54.562 33.977C54.8033 30.1227 54.7229 29.3519 54.1196 28.3669C53.7577 27.7245 53.2751 27.2106 53.1545 27.2106C52.9936 27.2106 50.4199 29.1378 47.4439 31.536Z"
     color="3a3a3c"
     id="path4"
     name="trap_right" />
  <path
     d="M59.3488 28.3669C58.7456 29.3518 58.6652 30.1655 58.8663 33.9769C58.9869 36.4179 59.188 38.5164 59.3086 38.6448C59.3891 38.7305 60.7966 38.4307 62.4454 37.9596C64.0942 37.4457 66.8288 36.9318 68.5179 36.8034C70.2471 36.6321 71.5742 36.3323 71.534 36.161C71.3731 35.7327 60.7161 27.2106 60.314 27.2106C60.1934 27.2106 59.7108 27.7245 59.3488 28.3669Z"
     color="3a3a3c"
     id="path5"
     name="trap_left" />
  <path
     d="M39.6442 37.9597C38.5584 38.1738 36.99 38.4736 36.2259 38.602C34.8586 38.859 34.939 38.9018 38.4377 40.2722L42.0571 41.6854L44.2689 47.6809L46.4807 53.7192L50.4218 57.6591L54.4031 61.6418L54.1216 52.0062C53.9607 46.7388 53.7194 42.285 53.5586 42.1565C53.3173 41.8996 41.8962 37.4458 41.7354 37.5314C41.6951 37.5742 40.7702 37.7455 39.6442 37.9597Z"
     color="3a3a3c"
     id="path6"
     name="rhomboid_right" />
  <path
     d="M65.7823 39.7155C62.6858 40.8718 60.0316 41.9852 59.9109 42.1565C59.7501 42.285 59.5088 46.7388 59.3479 52.0491L59.0664 61.6418L63.0075 57.6591L66.9888 53.6764L69.2006 47.6381L71.4124 41.5998L75.0318 40.2294C78.9326 38.7733 78.9326 38.7733 74.4285 38.131C73.4232 37.9597 72.3374 37.7884 72.0156 37.7027C71.6939 37.6171 68.8789 38.5164 65.7823 39.7155Z"
     color="3a3a3c"
     id="path7"
     name="rhomboid_left" />
  <path
     d="M28.7859 45.0257L26.1719 49.3939L26.6545 52.4345C26.936 54.1046 27.2577 55.4322 27.4185 55.3894C27.7805 55.2181 38.1962 42.4991 38.2364 42.1565C38.2364 42.028 36.7082 41.6426 34.8181 41.3L31.44 40.6576L28.7859 45.0257Z"
     color="3a3a3c"
     id="path8"
     name="rear_shoulder_right" />
  <path
     d="M77.7672 41.514C76.6412 41.7709 75.5956 42.1135 75.4749 42.242C75.2337 42.4989 85.3678 55.1323 85.9711 55.3464C86.1721 55.4321 86.5341 54.1045 86.7754 52.4343L87.2177 49.3509L84.644 45.1541C81.7887 40.4433 81.9496 40.529 77.7672 41.514Z"
     color="3a3a3c"
     id="path9"
     name="rear_shoulder_left" />
  <path
     d="M36.3454 47.0383C33.7717 49.9933 33.3293 50.8926 33.4902 52.991L33.6108 54.8325L38.6377 55.5605C41.4125 55.9888 43.8657 56.2885 44.1069 56.2029C44.3885 56.1601 43.8254 54.0616 42.6592 50.7641L40.7691 45.411L39.3616 45.2825C38.1551 45.1541 37.753 45.411 36.3454 47.0383Z"
     color="3a3a3c"
     id="path10"
     name="infraspinatus_right" />
  <path
     d="M72.3787 46.3531C69.7245 53.4621 68.9202 56.1172 69.3224 56.2029C69.6039 56.2885 72.057 55.9888 74.8318 55.5605L79.8587 54.8325L79.9793 52.8197C80.1 50.9354 79.9793 50.6356 77.9284 48.109C76.1187 45.7964 75.5557 45.411 74.309 45.2825C72.9819 45.1541 72.7808 45.2825 72.3787 46.3531Z"
     color="3a3a3c"
     id="path11"
     name="infraspinatus_left" />
  <path
     d="M27.4578 58.5156L23.2754 63.1407L23.5971 69.9927C23.758 74.1895 24.0395 77.016 24.321 77.2729C24.5623 77.4442 25.6079 78.0438 26.6535 78.5148L28.5436 79.3713L30.9565 74.8319L33.3694 70.2496L32.6053 62.1557C32.1629 57.7019 31.7608 54.019 31.7205 53.9762C31.6401 53.9333 29.75 55.9889 27.4578 58.5156Z"
     color="3a3a3c"
     id="path12"
     name="tricep_right" />
  <path
     d="M81.5063 55.7316C81.3857 56.6738 80.9835 60.3139 80.6618 63.8684L80.0586 70.3349L82.4715 74.8744L84.9246 79.4138L86.9756 78.386C88.1016 77.8293 89.1472 77.2297 89.308 77.0156C89.4689 76.8443 89.7504 73.5896 89.8711 69.821L90.1526 62.9691L85.93 58.5153L81.7476 54.1043L81.5063 55.7316Z"
     color="3a3a3c"
     id="path13"
     name="tricep_left" />
  <path
     d="M54.1355 105.664C51.1596 103.48 50.0738 101.553 50.8379 99.7544C51.602 97.9557 55.342 87.8062 55.342 87.8062L56.0458 85.9648L56.0706 85.8886C56.3809 84.9382 56.633 84.1661 56.7897 84.1661C56.9908 84.1661 57.2723 84.9798 57.5538 85.9648L58.157 87.8062L62.6611 99.7116C63.4654 101.639 62.5003 103.523 59.6048 105.664L56.8702 107.677L54.1355 105.664Z"
     color="3a3a3c"
     id="path14"
     name="lower_back" />
  <path
     d="M39.0785 75.3871C35.9417 66.1798 33.4082 58.043 33.4082 57.2722C33.4082 56.5442 33.5288 55.9018 33.7299 55.9018C33.8908 55.9446 36.4645 56.4585 39.5209 57.1437L44.9901 58.3428L49.6149 62.9679C54.9232 68.2354 54.6819 67.6358 54.7624 76.6291V87L50.7178 97L47.966 95.472L44.7891 92.0889L39.0785 75.3871Z"
     color="3a3a3c"
     id="path15"
     name="lat_right" />
  <path
     d="M74.3991 75.6735C77.5353 66.3773 80.0684 58.1619 80.0684 57.3836C80.0684 56.6486 79.9477 56 79.7467 56C79.5859 56.0432 77.0126 56.5621 73.9569 57.2539L68.4887 58.4646L63.8649 63.1344C58.5575 68.4527 58.7988 67.8474 58.7184 76.9275L58.7188 87L62.7188 97L65.5134 95.9524L68.6897 92.5366L74.3991 75.6735Z"
     color="3a3a3c"
     id="path16"
     name="lat_left" />
  <path
     d="M24.8431 81.5982C23.3552 83.9107 23.3552 83.9964 23.3552 88.2789C23.3552 92.4329 23.3149 92.7326 21.3444 97.8716C20.2586 100.784 19.3739 103.225 19.4543 103.268C19.5347 103.353 21.1835 101.383 23.1139 98.8566C26.3713 94.7026 26.8539 93.8461 28.8244 88.7071C29.9504 85.6237 30.8352 83.0114 30.7547 82.9257C30.6743 82.8401 30.3526 83.0114 30.0309 83.2683C28.8244 84.339 27.6984 83.6538 26.9745 81.384L26.2909 79.2856L24.8431 81.5982Z"
     color="3a3a3c"
     id="path17"
     name="forearm_upper_right" />
  <path
     d="M86.4541 81.4697C85.8106 83.6538 84.6444 84.339 83.4379 83.2683C83.1162 83.0114 82.7945 82.8401 82.7141 82.9257C82.6336 83.0114 83.5184 85.6237 84.6444 88.7071C86.6149 93.8461 87.0975 94.7026 90.3549 98.8566C92.2852 101.383 93.9341 103.353 94.0145 103.268C94.0949 103.225 93.2504 100.827 92.1244 97.9573C90.1538 92.9039 90.1136 92.647 90.1136 88.493C90.1136 84.2961 90.0734 84.1248 88.7061 81.8123C87.9018 80.5275 87.2181 79.4569 87.1377 79.4569C87.0975 79.4569 86.7758 80.3562 86.4541 81.4697Z"
     color="3a3a3c"
     id="path18"
     name="forearm_upper_left" />
  <path
     d="M19.6559 82.5829C18.2484 83.9105 18.0875 84.3387 16.0768 92.5183C14.4682 99.1561 13.6639 101.768 12.4172 104.081L10.8086 107.079L11.7738 108.92C12.2965 109.948 12.8998 110.976 13.1813 111.233C13.5432 111.533 14.629 109.563 17.4441 103.567L21.2645 95.516L21.7471 90.0772C22.2297 84.9811 22.109 81.8977 21.4254 81.4266C21.2645 81.341 20.4602 81.8549 19.6559 82.5829Z"
     color="3a3a3c"
     id="path19"
     name="forearm_lower_right" />
  <path
     d="M91.6804 82.3259C91.3185 83.2253 91.3587 85.0239 91.6804 89.4777L92.163 95.4304L95.9834 103.524C98.8387 109.563 99.9245 111.533 100.286 111.233C100.568 110.976 101.171 109.948 101.694 108.92L102.659 107.079L101.051 104.081C99.8039 101.768 98.9593 99.1133 97.3105 92.3898C95.2193 83.8676 95.1389 83.6535 93.651 82.4116L92.1228 81.084L91.6804 82.3259Z"
     color="3a3a3c"
     id="path20"
     name="forearm_lower_right" />
  <path
     d="M39.5634 89.3919C39.3623 92.5182 39.2416 95.1733 39.3221 95.2589C39.4025 95.3874 40.2872 95.1733 41.373 94.8307C43.0621 94.274 43.2631 94.0598 43.3838 92.7751C43.4642 91.833 43.0219 90.0771 41.9763 87.5505C41.1317 85.452 40.3274 83.739 40.2068 83.739C40.0862 83.739 39.8046 86.3085 39.5634 89.3919Z"
     color="3a3a3c"
     id="path21"
     name="unknown" />
  <path
     d="M71.4541 87.5505C70.4889 90.0343 70.0063 91.8758 70.0868 92.7751C70.2074 94.0598 70.4085 94.274 72.0975 94.8307C73.1833 95.1733 74.0681 95.3874 74.1485 95.2589C74.3898 94.9592 73.505 83.739 73.2235 83.739C73.1029 83.739 72.2986 85.452 71.4541 87.5505Z"
     color="3a3a3c"
     id="path22"
     name="unknown" />
  <path
     d="M41.7748 96.5867C40.5281 97.2719 39.4021 98.214 39.2815 98.5995C38.9195 99.9699 37.7533 108.192 37.8739 108.364C37.9544 108.406 39.0402 106.993 40.2466 105.152C42.2172 102.154 42.7802 101.683 45.4344 100.27L48.4103 98.6851L46.8419 96.9721C45.9974 96.0728 45.0322 95.302 44.6703 95.302C44.3486 95.3448 43.0215 95.9015 41.7748 96.5867Z"
     color="3a3a3c"
     id="path23"
     name="glute_upper_right" />
  <path
     d="M66.627 96.972L65.0586 98.685L68.0345 100.27C70.7289 101.683 71.2517 102.154 73.3429 105.28C74.5896 107.164 75.6351 108.449 75.6351 108.107C75.6351 107.721 75.2732 105.366 74.8308 102.796C74.3885 100.227 74.0265 98.0855 74.0265 97.9998C74.0265 97.7429 69.2007 95.3019 68.6779 95.3019C68.3964 95.3019 67.4715 96.0727 66.627 96.972Z"
     color="3a3a3c"
     id="path24"
     name="glute_upper_left" />
  <path
     d="M45.2736 102.796C41.8151 104.338 41.4934 104.681 38.7587 110.205C37.5121 112.774 37.4316 113.16 37.4316 117.357C37.4316 120.868 37.6327 122.367 38.2762 124.294C38.7587 125.665 39.3217 127.206 39.4826 127.72C39.8043 128.62 39.9652 128.491 42.2574 125.965C44.3888 123.609 45.354 122.924 50.0994 120.569L55.5284 117.871V114.145C55.5284 108.449 55.3273 107.892 52.9144 106.179C51.4265 105.109 50.6222 104.21 50.1798 102.968C49.8581 102.068 49.3353 101.297 49.0136 101.34C48.7321 101.34 47.043 102.025 45.2736 102.796Z"
     color="3a3a3c"
     id="path25"
     name="glute_lower_right" />
  <path
     d="M63.2096 103.096C62.6466 104.466 61.9629 105.28 60.4347 106.222C59.3087 106.907 58.3033 107.892 58.1827 108.363C58.0621 108.835 57.9414 111.147 57.9414 113.545V117.871L63.4106 120.611C68.2767 123.01 69.1614 123.652 71.2526 126.05C73.5046 128.62 73.6655 128.705 73.9872 127.763C76.1186 121.682 76.1186 121.596 75.998 116.843L75.8371 112.218L73.6253 108.192L71.4134 104.209L68.0354 102.753C66.1453 101.94 64.4562 101.297 64.2954 101.297C64.0943 101.297 63.6117 102.111 63.2096 103.096Z"
     color="3a3a3c"
     id="path26"
     name="glute_lower_right" />
  <path
     d="M6.2647 112.004C4.61588 112.775 2.76599 114.017 1.76061 115.087C0.111797 116.8 -0.571859 118.342 0.554162 117.871C4.85717 116.029 5.17889 115.944 5.33975 116.415C5.4604 116.715 4.37459 119.241 2.96706 122.068C1.55954 124.894 0.433517 127.249 0.433517 127.292C0.433517 127.378 0.835667 127.421 1.35846 127.421C2.0019 127.421 2.60513 126.736 3.81158 124.637C4.65609 123.095 5.50061 121.854 5.70169 121.854C6.46577 121.854 6.34513 122.71 5.05825 125.836L3.69093 129.134H4.81695C5.7419 129.134 6.02341 128.791 7.02878 126.222C8.43631 122.796 8.71781 122.367 9.32104 123.01C9.64276 123.352 9.56233 124.209 8.91889 126.179C8.27545 128.192 8.19502 128.962 8.55695 129.177C9.32104 129.691 9.52211 129.348 10.6883 126.136C11.3318 124.38 12.0154 123.138 12.3372 123.138C13.0208 123.138 13.0208 123.524 12.3372 126.65C11.8144 128.92 11.8144 129.134 12.4578 129.134C13.423 129.134 14.9109 122.282 14.9109 117.914V114.616L13.423 114.359C11.0503 113.931 10.9699 113.845 10.3264 112.218C10.0047 111.404 9.56233 110.719 9.40147 110.719C9.24061 110.719 7.83308 111.319 6.2647 112.004Z"
     color="3a3a3c"
     id="path27"
     name="hand" />
  <path
     d="M103.143 112.218C102.5 113.845 102.419 113.931 100.087 114.359L98.5586 114.616V117.914C98.5586 122.282 100.047 129.134 101.012 129.134C101.655 129.134 101.655 128.92 101.132 126.65C100.449 123.524 100.449 123.138 101.132 123.138C101.454 123.138 102.138 124.38 102.781 126.136C103.947 129.348 104.148 129.69 104.913 129.177C105.275 128.962 105.194 128.192 104.551 126.179C103.907 124.209 103.827 123.352 104.148 123.01C104.752 122.367 105.033 122.796 106.441 126.222C107.446 128.791 107.728 129.134 108.653 129.134H109.779L108.411 125.836C107.124 122.71 107.004 121.854 107.768 121.854C107.969 121.854 108.813 123.095 109.658 124.637C110.864 126.736 111.468 127.421 112.151 127.421C112.634 127.421 113.036 127.378 113.036 127.292C113.036 127.249 111.91 124.894 110.502 122.068C109.095 119.241 108.009 116.715 108.13 116.415C108.291 115.944 108.612 116.029 112.956 117.871C113.197 117.999 113.438 117.828 113.438 117.485C113.438 116.458 110.1 113.374 107.808 112.304C103.867 110.462 103.867 110.462 103.143 112.218Z"
     color="3a3a3c"
     id="path28"
     name="hand" />
  <path
     d="M52.27 121.168L50.8223 122.239L50.581 130.076C50.4201 136.585 50.5006 138.512 51.0636 141.553C51.8679 145.664 51.7472 145.835 53.3156 138.041C54.1199 133.93 54.321 131.789 54.321 126.564C54.321 123.052 54.2004 120.14 53.9993 120.14C53.8384 120.14 53.0743 120.611 52.27 121.168Z"
     color="3a3a3c"
     id="path29"
     name="adductor_right" />
  <path
     d="M59.1484 126.693C59.1484 132.132 59.3093 134.144 60.1538 138.17C61.7222 145.836 61.6016 145.664 62.3656 141.51C62.8884 138.598 63.0091 136.243 62.8482 130.033L62.6471 122.239L61.1994 121.168C60.4353 120.612 59.631 120.141 59.4702 120.141C59.2691 120.141 59.1484 123.095 59.1484 126.693Z"
     color="3a3a3c"
     id="path30"
     name="adductor_left" />
  <path
     d="M47.1628 124.552C46.1977 125.065 45.3532 125.836 45.2727 126.35C45.1521 126.821 44.6293 130.162 44.0261 133.802L42.9805 140.354L43.6239 148.662L44.2673 157.013L46.9215 164.079C48.4095 167.976 49.6562 171.102 49.6964 171.017C49.7768 170.931 50.38 169.432 51.1039 167.676L52.3908 164.464L51.868 157.398C51.5061 151.874 51.1039 149.304 50.0985 145.621C48.8519 140.953 48.8519 140.825 49.1334 134.701C49.5355 126.35 49.5355 123.567 49.2138 123.609C49.0127 123.609 48.128 124.038 47.1628 124.552Z"
     color="3a3a3c"
     id="path31"
     name="hamstring_1" />
  <path
     d="M64.0138 126.65C64.054 128.363 64.1747 132.26 64.3355 135.343C64.5768 140.739 64.5768 141.039 63.3302 145.407C62.365 149.005 62.0031 151.403 61.6009 157.184L61.0781 164.464L62.365 167.676C63.0889 169.432 63.6921 170.931 63.7725 171.017C63.8127 171.102 65.0594 167.976 66.5474 164.079L69.2016 157.013L69.8048 148.705L70.4482 140.397L69.4026 133.802C68.8396 130.162 68.3168 126.821 68.1962 126.35C68.0755 125.622 65.0594 123.567 64.1747 123.567C64.054 123.567 63.9736 124.98 64.0138 126.65Z"
     color="3a3a3c"
     id="path32"
     name="hamstring_2" />
  <path
     d="M36.1439 125.793C36.0635 126.093 36.0635 129.048 36.1842 132.346L36.4255 138.341L37.5515 134.144L38.6775 129.947L37.7928 127.592C36.8678 125.279 36.4657 124.808 36.1439 125.793Z"
     color="3a3a3c"
     id="path33"
     name="abductor_right" />
  <path
     d="M75.6769 127.678L74.752 130.033L75.878 134.187L77.0442 138.341L77.2453 132.56C77.5268 124.423 77.2453 123.566 75.6769 127.678Z"
     color="3a3a3c"
     id="path34"
     name="abductor_left" />
  <path
     d="M41.0497 129.605C40.2856 130.119 39.5618 130.59 39.4813 130.675C39.4009 130.761 38.677 134.358 37.8727 138.641L36.3848 146.478L37.6716 150.889C38.5966 154.015 39.039 156.584 39.24 159.839C39.7226 167.119 39.8835 167.205 41.4921 160.696L42.8996 154.957L41.8942 151.788L40.9291 148.619L41.8138 139.412C42.2964 134.358 42.8192 129.862 42.8996 129.433C43.1811 128.491 42.779 128.491 41.0497 129.605Z"
     color="3a3a3c"
     id="path35"
     name="hamstring_3" />
  <path
     d="M70.5684 129.862C70.6891 130.547 71.1716 135.044 71.6542 139.883L72.539 148.662L71.5336 151.874L70.5684 155.043L71.9759 160.824C73.5845 167.291 73.7052 167.248 74.1878 159.668C74.3486 156.842 74.8714 154.015 75.7159 151.06L77.0028 146.606L75.6757 139.069C74.9116 134.915 74.2682 131.275 74.1476 131.061C74.0269 130.633 71.0912 128.706 70.6086 128.706C70.4478 128.706 70.4478 129.219 70.5684 129.862Z"
     color="3a3a3c"
     id="path36"
     name="hamstring_4" />
  <path
     d="M42.2567 164.978C42.2567 166.091 41.7741 168.618 41.2111 170.588C40.4068 173.415 40.0851 175.941 39.683 182.408L39.1602 190.587L41.1307 194.827L43.1414 199.067L44.187 197.953L45.2326 196.84L44.549 192.001C44.0262 188.018 43.9457 185.106 44.1468 175.684C44.3881 164.764 44.3479 164.207 43.624 163.608C42.4176 162.665 42.2567 162.837 42.2567 164.978Z"
     color="3a3a3c"
     id="path37"
     name="calf_outer_right" />
  <path
     d="M69.8449 163.608C69.1211 164.164 69.1211 164.807 69.3221 175.47C69.483 184.463 69.4026 187.761 68.8798 191.786L68.2363 196.797L69.2819 197.953L70.3677 199.067L72.298 194.827L74.2686 190.587L73.7458 182.365C73.3436 175.856 73.0219 173.372 72.2176 170.545C71.6546 168.575 71.2122 166.091 71.2122 164.978C71.2122 162.837 71.0514 162.665 69.8449 163.608Z"
     color="3a3a3c"
     id="path38"
     name="calf_outer_left" />
  <path
     d="M46.0772 180.481C46.2381 190.502 46.4794 194.998 46.8011 195.512C47.0826 195.898 48.1282 197.225 49.1336 198.424L51.0237 200.651L52.1095 198.852C53.7985 196.112 53.9192 191.829 52.5116 183.692C51.4258 177.568 51.265 177.097 48.6108 171.744L45.8359 166.177L46.0772 180.481Z"
     color="3a3a3c"
     id="path39"
     name="calf_inner_right" />
  <path
     d="M64.6566 172.087C62.1632 177.312 61.8817 178.168 60.9568 183.522C59.3884 192.558 59.6297 196.626 61.8817 199.666L62.5654 200.609L64.8174 197.782L67.1097 194.956L67.3912 182.494C67.552 175.642 67.5923 169.218 67.5118 168.233L67.3912 166.434L64.6566 172.087Z"
     color="3a3a3c"
     id="path40"
     name="calf_inner_left" />
  <path
     d="M44.6702 199.152L43.7051 200.223L45.3941 208.917C46.681 215.64 47.1636 219.237 47.4853 225.062C47.7668 229.944 48.0885 232.642 48.4102 232.856C48.7722 233.113 48.9732 231.528 49.1743 226.646C49.3352 223.049 49.858 217.053 50.3003 213.285C51.547 202.964 51.5872 203.306 48.5309 200.48C47.1234 199.152 45.9169 198.082 45.7963 198.082C45.7158 198.082 45.193 198.553 44.6702 199.152Z"
     color="3a3a3c"
     id="path41"
     name="unknown" />
  <path
     d="M64.8179 200.566L62.2441 203.007L62.4452 206.004C62.5659 207.675 62.9278 211.7 63.3299 214.998C63.6919 218.295 64.1342 223.734 64.2951 227.074C64.6973 235.639 65.3809 234.826 65.9439 225.062C66.2656 219.237 66.7482 215.597 68.0753 208.874L69.7241 200.223L68.7992 199.152C68.2764 198.553 67.7536 198.082 67.633 198.082C67.5123 198.082 66.2254 199.195 64.8179 200.566Z"
     color="3a3a3c"
     id="path42"
     name="unknown" />
  <path
     d="M43.0625 213.542C43.0625 216.882 43.3842 220.351 44.0277 224.291C44.5907 227.503 44.9124 230.543 44.7917 231.014C44.5102 232.128 45.3145 233.241 46.1591 232.899C47.0438 232.513 46.521 223.092 45.1939 215.64C43.7864 207.718 43.0625 206.99 43.0625 213.542Z"
     color="3a3a3c"
     id="path43"
     name="unknown" />
  <path
     d="M69.7634 209.259C68.8786 210.373 67.2298 220.865 66.9483 226.817C66.707 231.871 66.7875 232.684 67.3102 232.899C68.1548 233.241 68.9591 232.128 68.6776 231.014C68.5569 230.5 68.8786 227.374 69.4416 224.077C70.1655 219.537 70.4068 216.839 70.3264 213.328C70.2459 209.73 70.0851 208.788 69.7634 209.259Z"
     color="3a3a3c"
     id="path44"
     name="unknown" />
  <path
     d="M41.9353 231.785C41.6136 232.385 41.9353 233.027 43.4635 234.826L45.434 237.052L47.5654 236.624C49.6968 236.153 52.3108 234.997 52.3108 234.526C52.2706 234.397 51.9488 233.798 51.5065 233.284L50.7022 232.256L49.6566 233.155C47.9676 234.569 45.9568 234.355 43.9461 232.556C42.4581 231.185 42.257 231.1 41.9353 231.785Z"
     color="3a3a3c"
     id="path45"
     name="foot" />
  <path
     d="M69.4434 232.599C67.5533 234.355 65.5023 234.569 63.8133 233.155L62.7677 232.256L61.9634 233.284C60.9178 234.611 60.958 234.654 62.4862 235.468C63.6525 236.11 67.9957 237.224 68.1968 236.967C68.237 236.881 69.0815 235.853 70.1271 234.654C71.6955 232.813 71.9367 232.385 71.4944 231.785C71.052 231.185 70.8509 231.271 69.4434 232.599Z"
     color="3a3a3c"
     id="path46"
     name="foot" />
</svg>
