<?xml version="1.0" encoding="UTF-8" standalone="no"?>
<svg
   width="114"
   height="238"
   viewBox="0 0 114 238"
   fill="none"
   version="1.1"
   id="svg71"
   sodipodi:docname="muscle_groups_front.svg"
   inkscape:version="1.3.2 (091e20e, 2023-11-25)"
   xmlns:inkscape="http://www.inkscape.org/namespaces/inkscape"
   xmlns:sodipodi="http://sodipodi.sourceforge.net/DTD/sodipodi-0.dtd"
   xmlns="http://www.w3.org/2000/svg"
   xmlns:svg="http://www.w3.org/2000/svg">
  <path
     d="M50.9832 1.67767C48.5504 3.47474 48.4693 3.64588 48.0233 8.39526C47.8205 10.1923 47.4961 11.262 46.969 11.7754C45.8337 12.8451 46.2797 16.0542 47.6989 17.3378C48.5504 18.1079 48.7531 18.7498 48.9153 21.103L49.1586 23.9698L51.8347 26.4942C54.4702 29.0187 54.5108 29.0615 56.9436 29.0615C59.3764 29.0187 59.3764 29.0187 62.1337 26.3231L64.8503 23.6275V20.9747C64.8503 18.6642 64.9719 18.1935 65.864 17.3806C66.5127 16.7815 66.9993 15.7119 67.202 14.471C67.5264 12.7596 67.4453 12.3745 66.6749 11.4331C65.9856 10.5774 65.7018 9.50773 65.4991 6.89771L65.2152 3.47474L62.6608 1.72046C60.1874 0.00897521 60.0252 -0.033812 56.7003 0.00897521C53.416 0.00897521 53.2133 0.0517624 50.9832 1.67767Z"
     id="path1"
     name="face"
      color="3a3a3c" />
  <path
     d="M50.0495 29.9174C50.2927 33.2976 50.4549 33.8538 52.5634 37.7475C53.8203 40.058 54.9151 41.855 54.9962 41.7267C55.0773 41.6411 54.9557 39.6301 54.6718 37.234C54.1853 33.0409 54.1447 32.827 51.9552 29.6179L49.7656 26.2805L50.0495 29.9174Z"
     
color="3a3a3c"
     id="path2"
     name="neck_left" />
  <path
     d="M61.6881 29.6176C59.7013 32.6127 59.6202 32.955 59.012 37.4049C58.6876 39.9721 58.4443 42.1114 58.4849 42.197C58.566 42.2398 59.6202 40.4855 60.8772 38.3034C62.9045 34.7093 63.1884 33.9391 63.5938 30.5589C63.8777 28.5051 63.9993 26.7509 63.9182 26.6653C63.8371 26.5369 62.8234 27.9061 61.6881 29.6176Z"
     
color="3a3a3c"
     id="path3"
     name="neck_right" />
  <path
     d="M44.7793 36.5495L40.7246 38.86L46.2796 38.9028H51.8751L50.7803 36.5495C50.1721 35.2659 49.4828 34.1962 49.2395 34.1962C49.0368 34.1962 47.0094 35.2659 44.7793 36.5495Z"
     
color="3a3a3c"
     id="path4"
     name="trap_left" />
  <path
     d="M62.9039 36.5495L61.6875 38.9028H67.1208C70.1213 38.9028 72.5541 38.8172 72.5541 38.7317C72.5541 38.4749 64.8907 34.1962 64.4853 34.1962C64.2825 34.1962 63.5527 35.2659 62.9039 36.5495Z"
     
color="3a3a3c"
     id="path5"
     name="trap_right" />
  <path
     d="M29.3307 44.6787L27.0195 47.8877L27.1006 51.6102C27.1412 53.664 27.2223 55.4183 27.3034 55.4611C27.3439 55.5466 28.1143 53.7496 29.0063 51.4818C30.5066 47.6738 30.7499 47.2459 33.5476 44.8071C36.7914 41.8975 36.7914 41.4697 33.5476 41.4697C31.6419 41.4697 31.6014 41.4697 29.3307 44.6787Z"
     
color="3a3a3c"
     id="path6"
     name="mid_shoulder_left" />
  <path
     d="M44.2517 41.7695C43.7245 41.9834 39.5482 50.4125 39.7915 50.712C39.9131 50.7976 43.3596 51.3966 47.536 52.0812L55.1183 53.2792V50.6692C55.1183 49.2145 54.9966 47.1607 54.875 46.091L54.6317 44.1656L50.4959 42.7964C46.5223 41.5128 45.3464 41.2988 44.2517 41.7695Z"
     
color="3a3a3c"
     id="path7"
     name="upper_chest_left" />
  <path
     d="M62.944 42.882C58.6866 44.3795 58.7677 44.2084 58.7677 49.6423V53.2792L66.1878 52.0812C70.2425 51.4394 73.689 50.8832 73.8512 50.8832C74.2972 50.8832 70.4858 42.6252 69.7965 41.9834C68.8234 41.1705 67.0393 41.4272 62.944 42.882Z"
     
color="3a3a3c"
     id="path8"
     name="upper_chest_right" />
  <path
     d="M77.744 41.7694C77.2574 41.8977 77.8656 42.7107 80.1768 44.8928C83.0151 47.5028 83.4206 48.1446 84.6775 51.3537C85.4479 53.3219 86.2183 55.1189 86.421 55.3329C86.5832 55.5896 86.7454 54.0493 86.7454 51.9099V48.0591L84.4342 44.7645C82.123 41.4698 82.123 41.4698 80.2579 41.5126C79.2442 41.5554 78.1089 41.641 77.744 41.7694Z"
     
color="3a3a3c"
     id="path9"
     name="mid_shoulder_right" />
  <path
     d="M35.2915 44.8503C32.291 47.6742 32.0072 48.0593 30.6286 51.7818C29.8176 53.9212 29.2094 55.761 29.25 55.8466C29.3311 55.9322 31.1962 55.0336 33.3452 53.8356L37.2783 51.6962L39.5084 47.0324C40.7248 44.4224 41.7385 42.2403 41.7385 42.1119C41.7385 41.9836 41.0086 41.898 40.1166 41.898C38.6974 41.898 38.1298 42.2403 35.2915 44.8503Z"
     
color="3a3a3c"
     id="path10"
     name="front_shoulder_left" />
  <path
     d="M72.1484 42.3255C72.1484 42.5822 73.1216 44.8499 74.338 47.3744L76.5275 51.9526L80.4201 53.9636C82.569 55.1188 84.3937 56.0174 84.4748 56.0174C84.5964 56.0174 83.9477 54.1347 83.0556 51.7814C81.4743 47.7594 81.2715 47.4171 78.3116 44.7216C75.676 42.3255 74.9462 41.8976 73.6892 41.8976C72.8377 41.8976 72.1484 42.1115 72.1484 42.3255Z"
     
color="3a3a3c"
     id="path11"
     name="front_shoulder_right" />
  <path
     d="M37.1568 53.493C36.3458 54.2204 35.7376 54.9478 35.8593 55.1189C35.9404 55.3328 38.211 56.8304 40.8871 58.5419L45.7528 61.6226L50.4968 60.7668C53.0918 60.2962 55.3219 59.8255 55.403 59.6971C55.5246 59.6116 55.4841 58.4563 55.3219 57.1299C55.0786 55.1617 54.8759 54.691 54.146 54.5199C51.7537 54.0064 40.4816 52.1666 39.6302 52.1666C39.103 52.1666 38.0083 52.7656 37.1568 53.493Z"
     
color="3a3a3c"
     id="path12"
     name="chest_left" />
  <path
     d="M65.7416 53.4502C62.1329 54.0492 59.0513 54.7338 58.8891 54.8622C58.7675 55.0333 58.5648 56.1886 58.4431 57.4722C58.2404 60.125 57.5916 59.7399 64.363 60.938L68.0933 61.6226L72.9995 58.5419C75.6757 56.8304 77.9463 55.3328 78.0274 55.1189C78.149 54.9478 77.5408 54.2204 76.6488 53.493C74.7431 51.9099 74.4998 51.9099 65.7416 53.4502Z"
     
color="3a3a3c"
     id="path13"
     name="chest_right" />
  <path
     d="M30.9533 57.4721L28.8854 58.4562L27.4257 64.7459C25.8038 71.5062 25.7227 72.4476 26.3715 75.6566L26.777 77.796L29.0476 76.2556C30.9939 74.8864 31.521 74.2018 33.0618 70.9072C34.4404 68.0405 34.9675 66.2434 35.4946 62.9916L36.1028 58.7985L34.8053 57.6004C34.0754 56.9586 33.3456 56.4452 33.2239 56.488C33.1023 56.488 32.0886 56.9586 30.9533 57.4721Z"
     
color="3a3a3c"
     id="path14"
     name="bicep_left" />
  <path
     d="M78.9606 57.5574L77.582 58.6271L78.2308 62.9914C78.7579 66.5427 79.2445 68.0402 80.7042 70.9926C82.2044 74.0304 82.8532 74.8862 84.7183 76.2554L86.9484 77.8813L87.4755 74.8862C87.9621 71.9767 87.9621 71.7627 86.3808 65.2163C85.5293 61.5366 84.7183 58.4559 84.6372 58.3703C84.5967 58.2848 83.583 57.8569 82.4477 57.3862L80.3798 56.4877L78.9606 57.5574Z"
     
color="3a3a3c"
     id="path15"
     name="bicep_right" />
  <path
     d="M37.6841 59.5259C37.6841 59.8254 37.5625 60.51 37.4409 61.0234C37.157 62.1787 38.3329 62.6493 39.9142 62.0075L41.0495 61.5368L39.6709 60.296C38.1302 58.9268 37.6841 58.7557 37.6841 59.5259Z"
     
color="3a3a3c"
     id="path16"
     name="oblique_1" />
  <path
     d="M74.1345 60.2105L72.7559 61.4941L73.8506 62.0076C75.2292 62.6922 76.2024 62.3071 76.2024 61.0662C76.2024 59.0552 75.5942 58.8413 74.1345 60.2105Z"
     
color="3a3a3c"
     id="path17"
     name="oblique_2" />
  <path
     d="M24.6259 63.2912L22.6797 66.2008V70.0944C22.6797 73.8597 22.7202 74.0736 24.1799 76.3413C24.9909 77.6677 25.7207 78.609 25.8018 78.5235C25.8829 78.4379 25.6802 76.6408 25.3153 74.5443C24.6665 70.8218 24.6665 70.6934 25.6802 65.6873C26.2478 62.8634 26.6939 60.5101 26.6128 60.4673C26.5722 60.4245 25.6802 61.7081 24.6259 63.2912Z"
     
color="3a3a3c"
     id="path18"
     name="tricep_left" />
  <path
     d="M87.1504 61.1517C87.1504 61.494 87.5964 63.8045 88.083 66.2862C89.0156 70.6932 89.0156 70.8216 88.3263 74.8436C87.9613 77.0685 87.7181 78.9512 87.7586 79.0367C87.7991 79.0795 88.4884 78.0954 89.2994 76.8118C90.7185 74.5869 90.7591 74.3729 90.8402 70.1798L90.8807 65.9011L89.3399 63.6334C87.3126 60.6383 87.1504 60.4243 87.1504 61.1517Z"
     
color="3a3a3c"
     id="path19"
     name="tricep_right" />
  <path
     d="M41.3331 62.2215C40.8871 62.7778 41.1304 62.9917 42.7117 63.7619C44.4553 64.5748 45.3878 64.5748 45.3878 63.7619C45.3878 63.4624 42.509 61.5797 42.0224 61.5797C41.9413 61.5797 41.617 61.8792 41.3331 62.2215Z"
     
color="3a3a3c"
     id="path20"
     name="oblique_3" />
  <path
     d="M69.5931 62.6067C68.3361 63.4197 68.174 63.6764 68.62 64.1043C69.066 64.4893 69.6336 64.4038 71.1339 63.7192C72.7558 62.9918 72.9585 62.7351 72.553 62.2216C71.8637 61.3659 71.4177 61.4087 69.5931 62.6067Z"
     
color="3a3a3c"
     id="path21"
     name="oblique_4" />
  <path
     d="M37.1154 64.1895C36.71 66.4144 36.7911 66.6284 38.6968 67.2702C39.7104 67.6552 40.5214 67.8692 40.5214 67.7408C40.5214 67.1846 38.8995 64.2751 38.1697 63.5905C37.3993 62.8631 37.3587 62.8631 37.1154 64.1895Z"
     
color="3a3a3c"
     id="path22"
     name="oblique_5" />
  <path
     d="M75.3115 63.5911C74.5816 64.4897 73.3652 66.9285 73.3652 67.5276C73.3652 67.7843 74.1356 67.6559 75.1493 67.3136C76.9334 66.6718 76.9334 66.629 76.7306 65.0887C76.4468 63.0349 76.0819 62.6498 75.3115 63.5911Z"
     
color="3a3a3c"
     id="path23"
     name="oblique_6" />
  <path
     d="M40.1152 64.6175C40.1152 65.1309 40.9667 66.6285 42.0209 67.9121L43.9267 70.2654L44.4943 68.4683C44.8187 67.4842 44.9809 66.6285 44.9403 66.5429C43.805 65.7299 40.6018 63.7189 40.3991 63.7189C40.2369 63.7189 40.1152 64.1468 40.1152 64.6175Z"
     
color="3a3a3c"
     id="path24"
     name="oblique_7" />
  <path
     d="M50.9011 64.96C46.8058 66.4147 45.9949 67.3988 46.4814 70.2656L46.8058 72.2766L49.0764 70.8218C50.3334 70.0089 52.1175 69.2387 53.0501 69.0675C54.3881 68.8536 54.7125 68.5969 54.7125 67.8695C54.7125 67.3561 54.8341 66.2008 54.9558 65.3023C55.2802 63.3769 55.2396 63.3769 50.9011 64.96Z"
     
color="3a3a3c"
     id="path25"
     name="abs_1" />
  <path
     d="M58.8481 66.1582L58.9697 68.6399L60.916 69.1533C61.9702 69.4101 63.7137 70.223 64.8085 70.9504C65.9033 71.635 66.917 72.1056 67.0386 71.9773C67.1602 71.8061 67.2819 70.7792 67.2819 69.624C67.2819 68.1692 67.0386 67.3135 66.5115 66.7572C65.8627 66.0727 60.0645 63.7194 59.0508 63.7194C58.8886 63.7194 58.767 64.8318 58.8481 66.1582Z"
     
color="3a3a3c"
     id="path26"
     name="abs_2" />
  <path
     d="M70.8097 65.1314C68.9446 66.3723 68.8635 66.5006 69.1068 67.9554C69.2689 68.8111 69.5122 69.6241 69.6339 69.7952C70.0393 70.1803 73.2831 66.1583 73.5669 64.8747C73.9319 63.3772 73.3237 63.42 70.8097 65.1314Z"
     
color="3a3a3c"
     id="path27"
     name="oblique_8" />
  <path
     d="M38.0879 68.64C38.0879 68.7683 39.2232 70.3943 40.6424 72.2769C43.359 75.9994 43.6428 75.9994 43.7239 72.2769C43.7645 70.9077 43.5618 70.6938 41.7371 69.5813C39.9125 68.5544 38.0879 68.0838 38.0879 68.64Z"
     
color="3a3a3c"
     id="path28"
     name="oblique_9" />
  <path
     d="M71.9053 69.7096L69.7969 70.9504L69.9996 73.0042C70.1213 74.1166 70.2429 75.2291 70.2834 75.443C70.324 75.7426 72.8785 72.6191 75.514 68.9394C76.2439 67.9553 74.0543 68.3832 71.9053 69.7096Z"
     
color="3a3a3c"
     id="path29"
     name="oblique_10" />
  <path
     d="M74.9856 71.5067C74.2152 72.9614 72.7555 75.1864 71.7824 76.4272C70.201 78.5238 70.0388 78.9516 70.2416 80.492C70.3632 81.4333 70.5659 82.289 70.6876 82.4602C70.8498 82.5885 72.0256 81.6044 73.2826 80.278C75.5127 77.9247 75.6749 77.668 76.3236 74.245C76.7291 72.1913 76.8913 70.3086 76.7291 69.7952C76.4453 69.025 76.2425 69.2389 74.9856 71.5067Z"
     
color="3a3a3c"
     id="path30"
     name="oblique_11" />
  <path
     d="M36.873 70.6082C36.873 71.2928 37.1569 73.2182 37.5218 74.8013C38.0489 77.3258 38.4138 78.0532 40.2385 80.1497C41.4143 81.4761 42.5902 82.5458 42.874 82.5458C43.1984 82.5458 43.3606 81.8184 43.3606 80.4492C43.3606 78.695 43.1579 78.0532 41.982 76.6412C41.2521 75.6571 39.9141 73.6461 39.0626 72.1057C38.2111 70.5654 37.3596 69.2818 37.1974 69.2818C37.0352 69.2818 36.873 69.8808 36.873 70.6082Z"
     
color="3a3a3c"
     id="path31"
     name="oblique_12" />
  <path
     d="M50.7806 72.8327L47.0098 74.5442V77.0687C47.0098 78.4379 47.0909 79.5503 47.2125 79.5503C47.2936 79.5503 47.9829 79.2508 48.7127 78.9513C49.4426 78.609 51.0645 78.1811 52.3214 78.0528L54.5921 77.796L54.8354 74.7154C54.9975 73.0467 54.957 71.5063 54.7948 71.378C54.6326 71.2496 52.808 71.8914 50.7806 72.8327Z"
     
color="3a3a3c"
     id="path32"
     name="abs_3" />
  <path
     d="M58.7676 74.4159V77.7533L61.5248 78.0528C63.025 78.2239 64.728 78.6518 65.3362 78.9513C65.9444 79.2936 66.5121 79.5503 66.6743 79.5503C67.1203 79.5503 66.877 74.8865 66.3904 74.5442C66.1066 74.3731 64.282 73.4745 62.3357 72.6188L58.7676 71.0357V74.4159Z"
     
color="3a3a3c"
     id="path33"
     name="abs_4" />
  <path
     d="M28.763 79.1227C26.4923 81.7755 25.5192 83.1875 25.6814 83.6581C25.8436 84.1288 26.0869 84.2144 26.4518 83.9576C26.6951 83.7009 27.952 82.7596 29.2495 81.7755C31.3174 80.1924 31.5607 79.8073 31.9662 77.7963C32.2095 76.5554 32.3717 75.4858 32.2906 75.4002C32.1689 75.3146 30.6281 76.9833 28.763 79.1227Z"
     
color="3a3a3c"
     id="path34"
     name="elbow_left" />
  <path
     d="M81.6361 76.9405C81.7578 77.7106 81.8794 78.7375 81.8794 79.1226C81.8794 79.5933 82.9336 80.6629 84.4339 81.7754C87.8804 84.3854 87.8398 84.3426 88.0831 83.4441C88.2048 82.8451 87.3127 81.647 84.8393 79.0798C81.4739 75.6141 81.3928 75.5285 81.6361 76.9405Z"
     
color="3a3a3c"
     id="path35"
     name="elbow_right" />
  <path
     d="M90.2324 78.9509C89.5431 86.1819 89.0566 84.7272 96.0712 96.8787C101.545 106.335 103.37 108.987 103.37 107.404C103.37 107.19 101.991 104.324 100.329 101.072C97.7742 96.023 97.2471 94.6538 96.8822 91.9582C96.2334 86.9093 93.8006 80.1061 92.0165 78.0952L90.4757 76.4692L90.2324 78.9509Z"
     
color="3a3a3c"
     id="path36"
     name="forearm_top_right" />
  <path
     d="M21.5049 78.4376C19.9236 80.1919 17.2475 87.8508 16.8014 91.9583C16.5582 94.2689 15.9905 95.7664 13.4766 100.815C11.8141 104.153 10.4355 107.019 10.4355 107.233C10.5166 108.645 12.0574 106.42 17.5718 96.8789L23.9377 85.9254L23.6539 81.4755C23.4917 78.9938 23.2484 76.9828 23.1268 76.9828C22.9646 76.9828 22.2348 77.6246 21.5049 78.4376Z"
     
color="3a3a3c"
     id="path37"
     name="forearm_top_left" />
  <path
     d="M49.1585 81.5615L47.05 81.7327L46.8067 83.5725C46.3607 86.6532 46.5635 86.9955 48.8341 87.295C49.9694 87.4234 51.6724 87.9368 52.6861 88.4503C54.0241 89.0921 54.5512 89.2204 54.7945 88.8354C54.9567 88.5359 55.1189 86.7388 55.1189 84.7706V81.262L53.2132 81.3476C52.1184 81.3904 50.3343 81.476 49.1585 81.5615Z"
     
color="3a3a3c"
     id="path38"
     name="abs_5" />
  <path
     d="M58.6461 85.1555C58.7677 87.3805 58.9299 89.2203 58.9705 89.3059C59.011 89.3487 60.0247 88.9208 61.2411 88.3218C62.4981 87.7228 64.1605 87.2521 65.1742 87.2521H66.8772V84.7277C66.8772 83.3157 66.715 82.0749 66.5528 81.9465C66.3906 81.8609 64.4849 81.6042 62.3359 81.4331L58.4434 81.1335L58.6461 85.1555Z"
     
color="3a3a3c"
     id="path39"
     name="abs_6" />
  <path
     d="M28.4393 84.4712L25.0334 86.7389L19.7622 96.4944C14.4911 106.207 14.4911 106.207 14.9777 107.833C15.7886 110.4 16.0725 110.7 16.7618 109.716C17.0861 109.245 19.6812 105.651 22.56 101.714C27.5878 94.7829 27.8311 94.3978 29.9396 88.536C31.156 85.2414 32.048 82.4602 31.9669 82.3318C31.8858 82.2462 30.264 83.1876 28.4393 84.4712Z"
     
color="3a3a3c"
     id="path40"
     name="forearm_bottom_left" />
  <path
     d="M81.6356 82.8021C81.8383 83.2728 82.852 86.0967 83.9873 89.1346C85.9336 94.483 86.2174 94.9537 91.6913 102.527C94.854 106.849 97.4895 110.357 97.5706 110.357C97.6517 110.357 98.0572 109.501 98.5032 108.432L99.3141 106.463L94.0025 96.6224L88.6908 86.7813L86.0147 84.9415C84.5144 83.9574 82.852 82.8877 82.3249 82.5882C81.4329 82.0747 81.3923 82.0747 81.6356 82.8021Z"
     
color="3a3a3c"
     id="path41"
     name="forearm_bottom_right" />
  <path
     d="M39.4665 90.2472L39.1016 97.9917L42.4264 100.73C44.2105 102.27 45.9135 103.511 46.1162 103.511C46.8461 103.511 46.8461 102.056 46.1162 99.9599C45.5891 98.4623 45.3053 96.0663 45.1025 91.7875L44.8593 85.7118L42.5481 84.1286C41.2911 83.2729 40.1558 82.5455 40.0341 82.5455C39.9125 82.5455 39.6692 86.0113 39.4665 90.2472Z"
     
color="3a3a3c"
     id="path42"
     name="oblique_13" />
  <path
     d="M70.8502 84.3003L68.4985 86.0118V91.7453C68.4985 96.5374 68.3768 97.8639 67.647 99.7465C67.201 100.987 66.9171 102.399 67.0793 102.956C67.282 103.94 67.4442 103.854 70.9313 101.073L74.5805 98.1634L74.3778 93.2428C74.0534 86.2685 73.729 82.546 73.4047 82.5888C73.283 82.5888 72.1072 83.359 70.8502 84.3003Z"
     
color="3a3a3c"
     id="path43"
     name="oblique_14" />
  <path
     d="M47.5366 90.7606C47.6583 91.3168 48.3476 95.5955 49.0369 100.302L50.3344 108.86L52.4834 110.443C54.3891 111.855 54.6729 111.983 54.8757 111.298C54.9973 110.913 55.1189 106.891 55.1595 102.441C55.2406 92.472 54.9162 91.0601 52.4428 90.6322C47.0501 89.6909 47.2934 89.6909 47.5366 90.7606Z"
     
color="3a3a3c"
     id="path44"
     name="abs_7" />
  <path
     d="M62.5383 90.3755L59.6189 90.8034L58.9701 93.0283C58.3214 95.4244 58.2403 99.7031 58.7269 107.704L58.9701 112.111L61.2002 110.443L63.3898 108.774L64.7278 100.045C66.147 90.675 66.2281 89.7765 65.7821 89.8621C65.5793 89.9049 64.1602 90.1188 62.5383 90.3755Z"
     
color="3a3a3c"
     id="path45"
     name="abs_8" />
  <path
     d="M37.6825 105.308C37.6825 107.747 37.4798 115.449 37.277 122.466L36.9121 135.216L40.4803 148.48C42.4265 155.754 44.17 161.83 44.3322 162.001C45.2243 162.985 44.8188 160.033 42.0616 146.812L39.0206 131.965L39.5477 120.412C39.8315 114.037 40.0748 107.405 40.0748 105.65C40.1153 102.484 40.0748 102.399 38.8989 101.671L37.6825 100.901V105.308Z"
     
color="3a3a3c"
     id="path46"
     name="unknown" />
  <path
     d="M74.4992 101.929L73.4044 102.87L74.0127 117.845L74.6209 132.821L71.5798 147.326C69.8768 155.327 68.6199 161.959 68.701 162.087C69.2686 162.644 69.9985 160.461 73.2017 148.609L76.6482 135.816L76.3644 121.91C76.2427 114.251 75.9995 106.421 75.8373 104.496L75.594 100.944L74.4992 101.929Z"
     
color="3a3a3c"
     id="path47"
     name="unknown" />
  <path
     d="M44.0498 107.02C43.8876 107.662 44.4147 109.116 45.8339 111.726C46.9692 113.78 48.3883 117.032 48.9965 118.957L50.0913 122.466L51.8348 119.3C52.808 117.545 53.6595 116.005 53.7405 115.877C53.8216 115.706 51.7132 113.438 49.0776 110.828C44.7796 106.549 44.2525 106.164 44.0498 107.02Z"
     
color="3a3a3c"
     id="path48"
     name="unknown" />
  <path
     d="M41.7383 109.801V113.267L47.4149 126.659C50.537 134.061 53.0915 139.795 53.0915 139.452C53.0915 139.11 52.7266 136.586 52.3211 133.89C51.5912 129.312 51.2263 128.199 46.8067 117.845C44.1711 111.726 41.9816 106.635 41.9005 106.549C41.8194 106.463 41.7383 107.918 41.7383 109.801Z"
     
color="3a3a3c"
     id="path49"
     name="hip_flexor_left" />
  <path
     d="M64.3635 111.127L59.8223 115.791L61.5658 118.829C62.5389 120.54 63.431 121.91 63.5931 121.91C63.7553 121.91 64.2824 120.498 64.8096 118.786C65.3367 117.117 66.6342 114.037 67.729 112.026C69.5941 108.517 70.2023 106.506 69.3508 106.506C69.1076 106.506 66.8775 108.603 64.3635 111.127Z"
     
color="3a3a3c"
     id="path50"
     name="unknown" />
  <path
     d="M66.7952 118.144C62.1729 129.055 62.0107 129.568 61.2403 134.66C60.8348 137.57 60.6321 139.795 60.7943 139.581C60.9565 139.41 63.5515 133.248 66.6331 125.974C71.2149 114.978 72.1475 112.368 72.1069 110.785C71.9853 106.036 71.742 106.421 66.7952 118.144Z"
     
color="3a3a3c"
     id="path51"
     name="hip_flexor_right" />
  <path
     d="M6.2186 109.844C4.84 110.486 2.89374 111.812 1.83952 112.839C-0.958237 115.577 -0.552765 116.262 2.97483 114.593C3.98851 114.122 5.04274 113.866 5.24547 113.994C5.5293 114.165 4.63727 116.39 3.05593 119.599C0.582554 124.563 0.50146 124.905 1.35295 124.905C2.04225 124.905 2.691 124.177 3.98851 122.081C6.2186 118.316 6.94845 118.872 5.24547 123.108C4.59672 124.776 4.02906 126.231 4.02906 126.317C4.02906 126.445 4.39398 126.616 4.88055 126.745C5.6104 126.959 5.93477 126.531 7.11064 123.792C7.92158 121.867 8.69198 120.626 9.09745 120.626C9.86785 120.626 9.86785 120.84 8.89471 123.835C7.92158 126.873 7.88104 127.044 8.81362 127.044C9.34073 127.044 9.78675 126.317 10.5166 124.22C11.3275 121.696 12.2196 120.541 12.7872 121.182C12.99 121.353 12.6251 123.193 11.8952 125.846C11.733 126.402 11.8952 126.616 12.4223 126.616C14.0442 126.616 15.9905 112.796 14.4902 112.283C14.2064 112.197 13.2738 112.026 12.4223 111.855C11.2059 111.641 10.8004 111.341 10.3139 110.143C10.03 109.33 9.50292 108.646 9.21909 108.688C8.93526 108.688 7.55666 109.245 6.2186 109.844Z"
     
color="3a3a3c"
     id="path52"
     name="hand_left" />
  <path
     d="M103.167 110.143C102.68 111.341 102.275 111.641 101.058 111.855C100.207 112.026 99.2744 112.197 99.0311 112.283C98.1796 112.582 98.3824 118.23 99.396 122.637C100.126 125.889 100.41 126.616 101.058 126.616C101.586 126.616 101.748 126.402 101.586 125.846C100.856 123.193 100.491 121.353 100.694 121.182C101.261 120.541 102.153 121.696 102.964 124.22C103.694 126.317 104.14 127.044 104.667 127.044C105.6 127.044 105.559 126.873 104.586 123.835C103.613 120.84 103.613 120.626 104.383 120.626C104.789 120.626 105.559 121.867 106.37 123.792C107.546 126.531 107.87 126.959 108.6 126.745C109.087 126.616 109.452 126.445 109.452 126.317C109.452 126.231 108.884 124.776 108.235 123.108C106.532 118.872 107.262 118.316 109.492 122.081C110.79 124.177 111.439 124.905 112.128 124.905C112.979 124.905 112.898 124.563 110.425 119.599C108.844 116.39 107.951 114.165 108.235 113.994C108.438 113.866 109.492 114.122 110.506 114.593C114.034 116.262 114.358 115.706 111.601 112.882C109.898 111.17 105.438 108.646 104.14 108.646C103.897 108.646 103.451 109.33 103.167 110.143Z"
     
color="3a3a3c"
     id="path53"
     name="hand_right" />
  <path
     d="M40.7643 123.322L40.4805 131.623L43.5621 146.555C47.1707 164.012 46.9275 162.986 47.6168 162.986C48.225 162.986 48.3061 162.258 49.4819 147.497L50.3334 136.543L45.9543 126.103C43.5621 120.37 41.4941 115.535 41.332 115.363C41.1698 115.192 40.9265 118.744 40.7643 123.322Z"
     
color="3a3a3c"
     id="path54"
     name="quad_upper_left" />
  <path
     d="M67.8503 125.846L63.3496 136.671L64.4038 149.721C65.2959 160.547 65.5797 162.772 66.0663 162.9C66.5934 162.985 67.2827 160.161 69.8777 147.582C73.0809 132.179 73.0809 132.136 72.9593 126.488C72.9187 123.407 72.7565 119.514 72.5944 117.931L72.3511 115.021L67.8503 125.846Z"
     
color="3a3a3c"
     id="path55"
     name="quad_upper_right" />
  <path
     d="M53.2123 120.498C52.2391 122.081 51.4688 123.664 51.4688 124.006C51.4688 124.391 51.7526 126.402 52.1175 128.499L52.8068 132.35L54.1449 129.569C55.2802 127.215 55.4829 126.402 55.4829 123.835C55.4829 122.167 55.3613 120.113 55.1991 119.214L54.9153 117.631L53.2123 120.498Z"
     
color="3a3a3c"
     id="path56"
     name="adductor_left" />
  <path
     d="M58.3613 122.337C58.3613 126.573 58.483 127.258 59.4561 129.397C60.0643 130.681 60.6725 131.75 60.7942 131.75C60.9563 131.75 61.3618 129.911 61.7267 127.686L62.416 123.664L60.5509 120.626C59.5372 119 58.6452 117.631 58.5641 117.631C58.4424 117.631 58.3613 119.727 58.3613 122.337Z"
     
color="3a3a3c"
     id="path57"
     name="adductor_right" />
  <path
     d="M51.3469 140.993C50.6171 146.94 49.3601 162.172 49.5629 162.686C49.7656 163.285 52.5633 164.996 52.8472 164.654C52.9688 164.568 53.6176 162.087 54.3474 159.177L55.6855 153.914L54.1447 147.411C53.3337 143.859 52.4012 140.479 52.1173 139.923C51.5902 138.939 51.5902 139.024 51.3469 140.993Z"
     
color="3a3a3c"
     id="path58"
     name="quad_lower_left" />
  <path
     d="M61.2819 140.608C61.0386 141.292 60.1871 144.544 59.3762 147.924L57.957 154L58.9302 157.765C59.4573 159.819 60.106 162.301 60.3493 163.285L60.8359 165.082L62.6605 163.927C64.404 162.857 64.4851 162.686 64.2824 161.274C64.2013 160.461 63.6742 155.198 63.1876 149.593C62.6605 144.031 62.1334 139.453 61.9712 139.453C61.809 139.453 61.5252 139.966 61.2819 140.608Z"
     
color="3a3a3c"
     id="path59"
     name="quad_lower_right" />
  <path
     d="M41.7383 167.307V171.799L43.4413 172.27C44.4144 172.527 45.2253 172.698 45.2659 172.655C45.4686 172.484 42.4681 163.67 42.0627 163.199C41.9005 162.985 41.7383 164.825 41.7383 167.307Z"
     
color="3a3a3c"
     id="path60"
     name="unknown" />
  <path
     d="M71.0936 164.269C70.8504 165.082 70.08 167.392 69.3907 169.361C68.1337 172.869 68.1337 172.912 69.0257 172.612C69.5123 172.441 70.4043 172.227 71.0531 172.099C72.0668 171.885 72.1479 171.757 72.1073 169.66C72.0668 168.462 71.9451 166.408 71.8235 165.125L71.5397 162.771L71.0936 164.269Z"
     
color="3a3a3c"
     id="path61"
     name="unknown" />
  <path
     d="M45.1847 167.264C44.9819 168.291 45.1441 168.805 45.9551 169.874C46.5227 170.602 47.0904 171.714 47.2526 172.313C47.8202 175.266 48.1041 176.036 48.6717 176.164C49.1177 176.25 49.4421 175.394 50.0098 172.527C50.4153 170.473 50.7802 168.163 50.8207 167.478L50.8613 166.195L48.1446 166.066L45.4685 165.938L45.1847 167.264Z"
     
color="3a3a3c"
     id="path62"
     name="unknown" />
  <path
     d="M62.8632 166.537C62.5389 167.008 62.62 167.992 63.2282 170.473C63.6742 172.313 64.0391 174.11 64.0391 174.495C64.0391 175.608 64.6473 176.292 65.3366 176.036C65.7421 175.865 66.0665 174.966 66.2287 173.597C66.4314 172.228 66.8774 170.944 67.5262 170.131C68.1344 169.361 68.4993 168.377 68.4993 167.435V165.981H65.9043C64.2419 165.981 63.1876 166.195 62.8632 166.537Z"
     
color="3a3a3c"
     id="path63"
     name="unknown" />
  <path
     d="M53.9417 168.12C53.6579 169.19 52.6442 171.586 51.7521 173.468C50.0897 176.934 49.9275 178.046 50.5763 181.384C50.9007 182.839 50.9007 182.839 52.036 179.458C52.6442 177.576 53.6173 175.223 54.1444 174.238C55.077 172.57 55.1176 172.142 54.8337 169.318L54.5094 166.194L53.9417 168.12Z"
     
color="3a3a3c"
     id="path64"
     name="unknown" />
  <path
     d="M58.8084 169.532C58.7679 172.313 58.9301 173.212 59.741 174.666C60.2681 175.651 61.1196 177.747 61.6467 179.33C62.1333 180.956 62.701 182.24 62.8631 182.24C62.9848 182.24 63.2281 181.127 63.3903 179.758C63.6335 177.405 63.5524 177.02 61.6873 172.784C60.5925 170.345 59.4977 167.863 59.2544 167.264C58.8895 166.366 58.8084 166.751 58.8084 169.532Z"
     
color="3a3a3c"
     id="path65"
     name="unknown" />
  <path
     d="M43.3591 175.223C43.3591 175.437 42.832 179.33 42.1832 183.866L40.9668 192.081L44.616 205.858C46.6028 213.432 48.3464 219.764 48.5086 219.935C48.7113 220.106 49.725 220.62 50.7792 221.133C52.5227 221.903 52.7255 221.946 52.5227 221.262C52.4011 220.876 51.5091 217.325 50.4954 213.389L48.7113 206.243L48.4275 196.274L48.1031 186.304L46.1163 181.17C43.9673 175.736 43.3996 174.452 43.3591 175.223Z"
     
color="3a3a3c"
     id="path66"
     name="tibia_left" />
  <path
     d="M67.7293 180.828L65.5803 186.262L65.2559 196.573L64.9315 206.842L63.0663 214.03C62.0527 218.01 61.2012 221.433 61.2012 221.647C61.2012 221.86 62.1743 221.518 63.3502 220.919L65.5397 219.764L69.1079 205.986L72.676 192.166L71.5001 183.78C70.8919 179.159 70.2432 175.394 70.1215 175.394C69.9594 175.394 68.9051 177.832 67.7293 180.828Z"
     
color="3a3a3c"
     id="path67"
     name="tibia_right" />
  <path
     d="M52.3215 182.753C50.3347 193.322 50.0914 203.462 51.6322 212.191L52.6053 217.539L52.6458 209.667C52.6864 202.478 52.7675 201.58 53.7001 198.884C54.3083 197.13 54.7948 194.477 54.957 192.209C55.1598 188.915 55.0787 187.973 54.1461 184.636C53.5784 182.54 53.0108 180.742 52.9297 180.657C52.8486 180.529 52.5647 181.47 52.3215 182.753Z"
     
color="3a3a3c"
     id="path68"
     name="calve_left" />
  <path
     d="M59.6605 184.122C58.3225 189.513 58.4036 194.348 59.9849 198.841C61.1202 202.178 61.2013 202.734 61.2419 209.324L61.2824 216.255L62.2555 210.907C63.107 206.157 63.1881 204.788 62.9448 198.498C62.7421 191.653 61.6473 182.582 60.9175 181.212C60.6337 180.699 60.3093 181.469 59.6605 184.122Z"
     
color="3a3a3c"
     id="path69"
     name="calf_right" />
  <path
     d="M51.6719 223.487C50.5771 224.043 49.2391 224.941 48.7931 225.498C47.0901 227.466 44.5762 232.301 44.5762 233.584C44.5762 234.697 44.7384 234.868 46.117 235.125C46.9279 235.296 48.1849 235.681 48.9147 236.023C50.6988 236.793 51.0637 236.751 51.0637 235.724C51.0637 234.526 51.753 234.654 52.0368 235.938C52.2396 236.708 52.564 237.007 53.2938 237.007C53.8209 237.007 54.3886 236.793 54.5508 236.537C55.1184 235.553 55.5644 225.326 55.0779 223.872C54.5913 222.203 54.348 222.203 51.6719 223.487Z"
     
color="3a3a3c"
     id="path70"
     name="foot_left" />
  <path
     d="M58.7674 223.529C58.2402 225.027 58.2402 232.129 58.8079 234.868C59.1728 236.708 59.3756 237.007 60.2271 237.007C60.9164 237.007 61.3218 236.665 61.6057 235.938C62.0922 234.526 62.7815 234.568 62.4977 235.938L62.3355 237.05L64.4845 236.194C65.7009 235.766 67.1606 235.253 67.8094 235.125C69.9178 234.611 69.0258 231.188 65.336 225.968C64.444 224.727 62.4571 223.486 60.0243 222.674C59.335 222.46 59.0917 222.631 58.7674 223.529Z"
     
color="3a3a3c"
     id="path71"
     name="foot_right" />
</svg>
